<svg width="20" height="20" viewBox="0 0 20 20" fill="none" xmlns="http://www.w3.org/2000/svg">
<g id="akar-icons:edit">
<g id="Group">
<path id="Vector" d="M13.7288 4.50664L15.4929 6.27081M14.8629 2.95248L10.0904 7.72498C9.84383 7.97123 9.67566 8.28496 9.60709 8.62664L9.16626 10.8333L11.3729 10.3916C11.7146 10.3233 12.0279 10.1558 12.2746 9.90915L17.0471 5.13664C17.1905 4.99323 17.3043 4.82297 17.3819 4.63559C17.4595 4.44821 17.4994 4.24738 17.4994 4.04456C17.4994 3.84174 17.4595 3.64091 17.3819 3.45353C17.3043 3.26615 17.1905 3.09589 17.0471 2.95248C16.9037 2.80906 16.7334 2.6953 16.546 2.61769C16.3587 2.54007 16.1578 2.50012 15.955 2.50012C15.7522 2.50012 15.5514 2.54007 15.364 2.61769C15.1766 2.6953 15.0063 2.80906 14.8629 2.95248Z" stroke="#9F9F9F" stroke-width="2" stroke-linecap="round" stroke-linejoin="round"/>
<path id="Vector_2" d="M15.833 12.5V15C15.833 15.442 15.6574 15.8659 15.3449 16.1785C15.0323 16.491 14.6084 16.6666 14.1663 16.6666H4.99967C4.55765 16.6666 4.13372 16.491 3.82116 16.1785C3.5086 15.8659 3.33301 15.442 3.33301 15V5.83329C3.33301 5.39127 3.5086 4.96734 3.82116 4.65478C4.13372 4.34222 4.55765 4.16663 4.99967 4.16663H7.49967" stroke="#9F9F9F" stroke-width="2" stroke-linecap="round" stroke-linejoin="round"/>
</g>
</g>
</svg>
