<svg width="25" height="24" viewBox="0 0 25 24" fill="none" xmlns="http://www.w3.org/2000/svg">
<g id="gg:add">
<g id="Group">
<path id="Vector" fill-rule="evenodd" clip-rule="evenodd" d="M2.5 12C2.5 6.477 6.977 2 12.5 2C18.023 2 22.5 6.477 22.5 12C22.5 17.523 18.023 22 12.5 22C6.977 22 2.5 17.523 2.5 12ZM12.5 4C10.3783 4 8.34344 4.84285 6.84315 6.34315C5.34285 7.84344 4.5 9.87827 4.5 12C4.5 14.1217 5.34285 16.1566 6.84315 17.6569C8.34344 19.1571 10.3783 20 12.5 20C14.6217 20 16.6566 19.1571 18.1569 17.6569C19.6571 16.1566 20.5 14.1217 20.5 12C20.5 9.87827 19.6571 7.84344 18.1569 6.34315C16.6566 4.84285 14.6217 4 12.5 4Z" fill="white"/>
<path id="Vector_2" fill-rule="evenodd" clip-rule="evenodd" d="M13.5 7C13.5 6.73478 13.3946 6.48043 13.2071 6.29289C13.0196 6.10536 12.7652 6 12.5 6C12.2348 6 11.9804 6.10536 11.7929 6.29289C11.6054 6.48043 11.5 6.73478 11.5 7V11H7.5C7.23478 11 6.98043 11.1054 6.79289 11.2929C6.60536 11.4804 6.5 11.7348 6.5 12C6.5 12.2652 6.60536 12.5196 6.79289 12.7071C6.98043 12.8946 7.23478 13 7.5 13H11.5V17C11.5 17.2652 11.6054 17.5196 11.7929 17.7071C11.9804 17.8946 12.2348 18 12.5 18C12.7652 18 13.0196 17.8946 13.2071 17.7071C13.3946 17.5196 13.5 17.2652 13.5 17V13H17.5C17.7652 13 18.0196 12.8946 18.2071 12.7071C18.3946 12.5196 18.5 12.2652 18.5 12C18.5 11.7348 18.3946 11.4804 18.2071 11.2929C18.0196 11.1054 17.7652 11 17.5 11H13.5V7Z" fill="white"/>
</g>
</g>
</svg>
